<mxfile host="Electron" modified="2024-05-08T17:23:53.327Z" agent="Mozilla/5.0 (Windows NT 10.0; Win64; x64) AppleWebKit/537.36 (KHTML, like Gecko) draw.io/22.1.16 Chrome/120.0.6099.109 Electron/28.1.0 Safari/537.36" etag="TTMXciPAxo6SCeJTSvr_" version="22.1.16" type="device">
  <diagram name="Page-1" id="13e1069c-82ec-6db2-03f1-153e76fe0fe0">
    <mxGraphModel dx="1050" dy="621" grid="1" gridSize="10" guides="1" tooltips="1" connect="1" arrows="1" fold="1" page="1" pageScale="1" pageWidth="1100" pageHeight="850" background="none" math="0" shadow="0">
      <root>
        <mxCell id="0" />
        <mxCell id="1" parent="0" />
        <mxCell id="7baba1c4bc27f4b0-2" value="AdminView" style="shape=umlLifeline;perimeter=lifelinePerimeter;whiteSpace=wrap;html=1;container=1;collapsible=0;recursiveResize=0;outlineConnect=0;rounded=0;shadow=0;comic=0;labelBackgroundColor=none;strokeWidth=1;fontFamily=Verdana;fontSize=12;align=center;fillColor=#dae8fc;strokeColor=#6c8ebf;" parent="1" vertex="1">
          <mxGeometry x="220" y="120" width="135" height="320" as="geometry" />
        </mxCell>
        <mxCell id="7baba1c4bc27f4b0-10" value="" style="html=1;points=[];perimeter=orthogonalPerimeter;rounded=0;shadow=0;comic=0;labelBackgroundColor=none;strokeWidth=1;fontFamily=Verdana;fontSize=12;align=center;" parent="7baba1c4bc27f4b0-2" vertex="1">
          <mxGeometry x="62.5" y="96" width="10" height="110" as="geometry" />
        </mxCell>
        <mxCell id="BazkxacqFKndKwqCTscp-41" value="return" style="text;html=1;strokeColor=none;fillColor=none;align=center;verticalAlign=middle;whiteSpace=wrap;rounded=0;" parent="7baba1c4bc27f4b0-2" vertex="1">
          <mxGeometry x="75" y="266" width="60" height="30" as="geometry" />
        </mxCell>
        <mxCell id="7baba1c4bc27f4b0-8" value="Admin" style="shape=umlLifeline;perimeter=lifelinePerimeter;whiteSpace=wrap;html=1;container=1;collapsible=0;recursiveResize=0;outlineConnect=0;rounded=0;shadow=0;comic=0;labelBackgroundColor=none;strokeWidth=1;fontFamily=Verdana;fontSize=12;align=center;glass=0;fillColor=#dae8fc;strokeColor=#6c8ebf;" parent="1" vertex="1">
          <mxGeometry x="80" y="120" width="100" height="320" as="geometry" />
        </mxCell>
        <mxCell id="7baba1c4bc27f4b0-9" value="" style="html=1;points=[];perimeter=orthogonalPerimeter;rounded=0;shadow=0;comic=0;labelBackgroundColor=none;strokeWidth=1;fontFamily=Verdana;fontSize=12;align=center;" parent="7baba1c4bc27f4b0-8" vertex="1">
          <mxGeometry x="45" y="96" width="10" height="224" as="geometry" />
        </mxCell>
        <mxCell id="7baba1c4bc27f4b0-11" value="addProjection()" style="html=1;verticalAlign=bottom;endArrow=block;entryX=0;entryY=0;labelBackgroundColor=none;fontFamily=Verdana;fontSize=12;edgeStyle=elbowEdgeStyle;elbow=vertical;" parent="1" edge="1">
          <mxGeometry relative="1" as="geometry">
            <mxPoint x="135" y="228" as="sourcePoint" />
            <mxPoint x="275" y="228" as="targetPoint" />
            <mxPoint as="offset" />
          </mxGeometry>
        </mxCell>
        <mxCell id="7baba1c4bc27f4b0-40" value="UC4: Gestione delle proiezioni" style="shape=note;whiteSpace=wrap;html=1;size=7;verticalAlign=top;align=left;spacingTop=-6;rounded=0;shadow=0;comic=0;labelBackgroundColor=none;strokeWidth=1;fontFamily=Verdana;fontSize=12;fillColor=#fff2cc;strokeColor=#d6b656;" parent="1" vertex="1">
          <mxGeometry width="130" height="35" as="geometry" />
        </mxCell>
        <mxCell id="BazkxacqFKndKwqCTscp-32" value="AdminView&lt;br&gt;Controller" style="shape=umlLifeline;perimeter=lifelinePerimeter;whiteSpace=wrap;html=1;container=1;collapsible=0;recursiveResize=0;outlineConnect=0;rounded=0;shadow=0;comic=0;labelBackgroundColor=none;strokeWidth=1;fontFamily=Verdana;fontSize=12;align=center;fillColor=#dae8fc;strokeColor=#6c8ebf;" parent="1" vertex="1">
          <mxGeometry x="390" y="120" width="120" height="320" as="geometry" />
        </mxCell>
        <mxCell id="BazkxacqFKndKwqCTscp-33" value="" style="html=1;points=[];perimeter=orthogonalPerimeter;rounded=0;shadow=0;comic=0;labelBackgroundColor=none;strokeWidth=1;fontFamily=Verdana;fontSize=12;align=center;" parent="BazkxacqFKndKwqCTscp-32" vertex="1">
          <mxGeometry x="55" y="110" width="10" height="156.5" as="geometry" />
        </mxCell>
        <mxCell id="7baba1c4bc27f4b0-14" value="switchPage()" style="html=1;verticalAlign=bottom;endArrow=block;labelBackgroundColor=none;fontFamily=Verdana;fontSize=12;edgeStyle=elbowEdgeStyle;elbow=vertical;" parent="1" edge="1">
          <mxGeometry relative="1" as="geometry">
            <mxPoint x="294" y="260" as="sourcePoint" />
            <mxPoint x="444" y="260" as="targetPoint" />
          </mxGeometry>
        </mxCell>
        <mxCell id="Tgv9cBTI27cX0pnWbjZV-3" value="Projection" style="shape=umlLifeline;perimeter=lifelinePerimeter;whiteSpace=wrap;html=1;container=1;collapsible=0;recursiveResize=0;outlineConnect=0;rounded=0;shadow=0;comic=0;labelBackgroundColor=none;strokeWidth=1;fontFamily=Verdana;fontSize=12;align=center;fillColor=#dae8fc;strokeColor=#6c8ebf;" parent="1" vertex="1">
          <mxGeometry x="555" y="120" width="100" height="320" as="geometry" />
        </mxCell>
        <mxCell id="Tgv9cBTI27cX0pnWbjZV-4" value="" style="html=1;points=[];perimeter=orthogonalPerimeter;rounded=0;shadow=0;comic=0;labelBackgroundColor=none;strokeWidth=1;fontFamily=Verdana;fontSize=12;align=center;" parent="Tgv9cBTI27cX0pnWbjZV-3" vertex="1">
          <mxGeometry x="45" y="150" width="10" height="160" as="geometry" />
        </mxCell>
        <mxCell id="OEkpLyYIj6ylqrcDeSnV-3" value="" style="endArrow=open;dashed=1;html=1;dashPattern=1 3;strokeWidth=2;rounded=0;endFill=0;" parent="Tgv9cBTI27cX0pnWbjZV-3" edge="1">
          <mxGeometry width="50" height="50" relative="1" as="geometry">
            <mxPoint x="45" y="290" as="sourcePoint" />
            <mxPoint x="-415" y="290" as="targetPoint" />
          </mxGeometry>
        </mxCell>
        <mxCell id="Tgv9cBTI27cX0pnWbjZV-5" value="addProjection&lt;br&gt;(inserire parametri)" style="html=1;verticalAlign=bottom;endArrow=block;entryX=0;entryY=0;labelBackgroundColor=none;fontFamily=Verdana;fontSize=12;edgeStyle=elbowEdgeStyle;elbow=vertical;" parent="1" edge="1">
          <mxGeometry relative="1" as="geometry">
            <mxPoint x="455" y="295" as="sourcePoint" />
            <mxPoint x="595" y="295" as="targetPoint" />
          </mxGeometry>
        </mxCell>
        <mxCell id="W9RyTXQfxeWSd7MrWU1f-1" value="Nella view di admin avremo il bottone gestisci proiezioni che apre un&#39;altra view che visualizza l&#39;elenco delle proiezioni e c&#39;è un pulsante &lt;br&gt;aggiungi/rimuovi proiezioni che apre un&#39;altra view.&lt;br&gt;Nel caso di aggiungi proiezioni si apre una nuova view con una tabella con 3 colonne:&lt;br&gt;la lista di tutti i flm (nel catalogo)&lt;br&gt;orario&lt;br&gt;sala&lt;br&gt;&lt;br&gt;NB prima di aggiungere è necessario verificare che non abbiamo aggiunto una proiezione&amp;nbsp;&lt;br&gt;in una sala che abbia gia una proiezione alla stessa ora.&lt;br&gt;ora che abbiamo fatto la verifica, in qualche modo bisogna passare ad admin tali dati, quest&#39;ultimo crea l&#39;istanza di proiezione e la inserisce nel DB." style="text;html=1;align=center;verticalAlign=middle;resizable=0;points=[];autosize=1;strokeColor=none;fillColor=none;" parent="1" vertex="1">
          <mxGeometry x="45" y="485" width="800" height="160" as="geometry" />
        </mxCell>
      </root>
    </mxGraphModel>
  </diagram>
</mxfile>
